<svg height="511pt" viewBox="-65 1 511 511.99895" width="511pt" xmlns="http://www.w3.org/2000/svg">
<path style="fill:#DAA520;" d="m352 216.382812c-18.605469-24.3125-44.660156-42.476562-77.445312-53.988281-15.257813-5.359375-25.511719-19.800781-25.511719-35.945312v-95.035157h15.175781c8.675781 0
 15.707031-7.035156 15.707031-15.707031 0-8.675781-7.03125-15.707031-15.707031-15.707031h-145.722656c-8.671875 0-15.703125 7.03125-15.703125 15.707031 0 8.671875 7.03125 15.707031 15.703125 15.707031h15.175781v95.039063c0 16.140625-10.25 
 30.582031-25.511719 35.941406-32.78125 11.511719-58.835937 29.675781-77.445312 53.988281-20.050782 26.199219-30.214844 58.035157-30.214844 94.625 0 32.121094 7.769531 67.824219 22.472656 103.253907 14.890625 35.882812 35.511719 68.027343 59.625
  92.953125 2.960938 3.058594 7.03125 4.785156 11.289063 4.785156h194.945312c4.253907 0 8.328125-1.726562 11.289063-4.785156 24.113281-24.925782 44.734375-57.070313 59.625-92.953125 14.699218-35.429688 22.472656-71.132813 22.472656-103.253907
   0-36.589843-10.164062-68.429687-30.21875-94.625zm-251.3125 264.203126c-20.65625-22.730469-38.046875-51.617188-50.175781-81.878907.867187.492188 1.742187 1 2.640625 1.515625 11.304687 6.539063 25.371094 14.675782 51.308594 14.675782 25.941406
    0 40.007812-8.136719 51.3125-14.675782 10.097656-5.839844 18.074218-10.453125 35.582031-10.453125 17.507812 0 25.484375 4.613281 35.582031 10.453125 11.304688 6.539063 25.375 14.675782 51.3125 14.675782s40.007812-8.136719 
    51.3125-14.675782c.898438-.519531 1.777344-1.023437 2.644531-1.519531-12.128906 30.265625-29.515625 59.152344-50.175781 81.882813zm64.398438-354.132813v-95.039063h52.546874v95.039063c0 29.457031 18.691407 55.8125 46.515626 65.578125 39.050781
     13.714844 65.824218 38.492188 78.417968 71.652344-12.546875 2.902344-21.246094 7.929687-28.730468 12.257812-10.101563 5.839844-18.078126 10.453125-35.585938 10.453125s-25.484375-4.613281-35.585938-10.453125c-11.300781-6.539062-25.371093-14.675781-51.308593-14.675781-25.941407 0-40.007813 8.136719-51.3125 14.675781-10.097657 5.839844-18.074219 10.453125-35.582031 10.453125-17.503907 0-25.484376-4.613281-35.578126-10.453125-7.484374-4.328125-16.183593-9.355468-28.730468-12.257812 12.597656-33.160156 39.367187-57.9375 78.417968-71.652344 27.824219-9.769531 46.515626-36.125 46.515626-65.578125zm185.722656 184.554687c0 15.707032-2.207032 32.414063-6.277344 49.3125-13.460938 2.761719-22.519531 7.984376-30.695312 12.710938-10.101563 5.839844-18.078126 10.453125-35.585938 10.453125s-25.484375-4.613281-35.585938-10.453125c-11.300781-6.539062-25.371093-14.675781-51.308593-14.675781-25.941407 0-40.007813 8.136719-51.3125 14.675781-10.097657 5.839844-18.074219 10.453125-35.582031 10.453125-17.503907 0-25.484376-4.613281-35.578126-10.453125-8.179687-4.730469-17.238281-9.949219-30.695312-12.710938-4.066406-16.894531-6.273438-33.601562-6.273438-49.3125 0-5.753906.328126-11.34375.945313-16.785156 8.011719 1.824219 13.710937 5.101563 20.292969 8.910156 11.304687 6.539063 25.371094 14.675782 51.3125 14.675782 25.9375 0 40.003906-8.136719 51.308594-14.675782 10.097656-5.839843 18.074218-10.453124 35.582031-10.453124 17.507812 0 25.484375 4.613281 35.585937 10.453124 11.300782 6.539063 25.371094 14.675782 51.3125 14.675782 25.9375 0 40.007813-8.136719 51.3125-14.675782 6.585938-3.808593 12.28125-7.085937 20.292969-8.910156.621094 5.441406.949219 11.035156.949219 16.785156zm0 0"/>
     <path style="fill:#DAA520;" d="m104.101562 257.601562c8.214844 0 16.085938-7.226562 15.707032-15.707031-.382813-8.511719-6.902344-15.707031-15.707032-15.707031-8.214843 0-16.085937 7.222656-15.707031 15.707031.382813 8.511719 6.902344 15.707031 
     15.707031 15.707031zm0 0"/>
     <path style="fill:#DAA520;" d="m278.617188 257.601562c8.214843 0 16.085937-7.226562 15.707031-15.707031-.382813-8.511719-6.902344-15.707031-15.707031-15.707031-8.214844 0-16.085938 7.222656-15.707032 15.707031.382813 8.511719 6.898438 15.707031
      15.707032 15.707031zm0 0"/>
      <path style="fill:#DAA520;" d="m191.359375 237.707031c8.214844 0 16.085937-7.226562 15.707031-15.707031-.382812-8.511719-6.902344-15.707031-15.707031-15.707031-8.214844 0-16.085937 7.222656-15.707031 15.707031.382812 8.511719 6.902344 15.707031 15.707031 15.707031zm0 0"/></svg>